<svg xmlns="http://www.w3.org/2000/svg" width="512" height="128" viewBox="0 0 512 128"><g fill="#FFF" fill-rule="evenodd"><g transform="translate(148 20)"><path fill-rule="nonzero" d="M0 88.064C0 88.064 0 69.12 0 69.12L12.416 78.336C20.48 84.224 30.592 88.064 41.472 88.064 62.592 88.064 77.568 74.496 77.568 51.712 77.568 29.184 62.592 15.616 41.472 15.616 30.336 15.616 20.48 19.456 12.416 25.344L12.416 0 0 0 0 88.064ZM39.296 75.776C24.832 75.776 12.416 65.28 12.416 51.712 12.416 38.144 24.832 27.648 39.296 27.648 53.76 27.648 64.384 38.144 64.384 51.712 64.384 65.28 53.76 75.776 39.296 75.776ZM120.576 91.648C139.264 91.648 149.504 81.792 149.504 62.208L149.504 25.344 136.448 25.344 136.448 61.568C136.448 74.88 130.432 79.104 120.576 79.104 110.72 79.104 104.704 75.136 104.704 61.568L104.704 25.344 91.648 25.344 91.648 62.208C91.648 81.152 100.992 91.648 120.576 91.648ZM191.744 91.648C209.024 91.648 219.904 83.072 222.144 70.912L208.64 70.912C206.912 75.904 202.048 79.232 191.744 79.232 180.48 79.232 172.8 73.472 171.904 62.72L223.36 62.72C225.472 41.216 213.888 23.808 191.744 23.808 172.288 23.808 159.104 37.12 159.104 58.624 159.104 78.592 170.624 91.648 191.744 91.648ZM191.36 36.224C202.112 36.224 208.64 41.472 210.048 51.84L171.904 51.84C173.184 41.088 180.864 36.224 191.36 36.224ZM264.704 91.648C283.392 91.648 293.632 81.792 293.632 62.208L293.632 25.344 280.576 25.344 280.576 61.568C280.576 74.88 274.56 79.104 264.704 79.104 254.848 79.104 248.832 75.136 248.832 61.568L248.832 25.344 235.776 25.344 235.776 62.208C235.776 81.152 245.12 91.648 264.704 91.648ZM340.864 91.648C351.488 91.648 358.272 87.04 362.048 81.536L362.048 90.112 375.104 90.112 375.104 25.344 362.048 25.344 362.048 57.856C362.048 73.216 352.576 79.232 342.528 79.232 330.752 79.232 322.944 70.912 322.944 57.856L322.944 25.344 309.888 25.344 309.888 58.112C309.888 80.512 324.096 91.648 340.864 91.648Z"/></g><path d="M0,0 L128,0 L128,128 L0,128 L0,0 Z M16,16 L16,112 L112,112 L112,16 L16,16 Z M32,48 L32,96 L56,96 L56,72 L80,72 L80,48 L32,48 Z M56,48 L80,48 L80,72 L56,72 L56,48 Z M32,32 L56,32 L56,48 L32,48 L32,32 Z M56,32 L80,32 L80,48 L56,48 L56,32 Z M80,32 L96,32 L96,48 L80,48 L80,32 Z"/></g></svg>
