<svg xmlns="http://www.w3.org/2000/svg" width="678" height="135" viewBox="0 0 678 135"><g fill="#FFF" fill-rule="evenodd"><path d="M128,0 L128,128 L0,128 L0,0 L128,0 Z M40,80 L16,103 L88,112 L112,88 L40,80 Z M40,48 L16,71 L88,80 L112,56 L40,48 Z M40,16 L16,39 L88,48 L112,24 L40,16 Z"/><path fill-rule="nonzero" d="M49.92 123.536C56.832 123.536 62.976 122.384 68.352 120.336L77.312 133.264 92.8 133.264 79.36 113.68C88.576 105.616 93.696 93.072 93.696 76.944 93.696 48.016 77.312 30.352 49.92 30.352 22.528 30.352 6.144 48.144 6.144 76.944 6.144 105.616 22.528 123.536 49.92 123.536ZM49.792 110.736C31.104 110.736 20.224 99.6 20.224 76.944 20.224 54.16 31.104 43.152 49.792 43.152 68.736 43.152 79.616 54.16 79.616 76.944 79.616 88.464 76.8 96.912 71.68 102.544L55.936 79.76 40.448 79.76 60.8 109.2C57.472 110.224 53.76 110.736 49.792 110.736ZM134.448 123.536C153.904 123.536 164.4 113.68 164.4 94.096L164.4 57.232 151.088 57.232 151.088 93.456C151.088 106.768 144.944 110.992 134.448 110.992 123.952 110.992 117.808 107.024 117.808 93.456L117.808 57.232 104.496 57.232 104.496 94.096C104.496 113.04 114.096 123.536 134.448 123.536ZM207.712 123.536C225.248 123.536 236.384 114.96 238.688 102.8L224.736 102.8C222.944 107.792 217.952 111.12 207.712 111.12 196.32 111.12 188.512 105.36 187.616 94.608L240.096 94.608C242.272 73.104 230.496 55.696 207.712 55.696 187.872 55.696 174.304 69.008 174.304 90.512 174.304 110.48 186.08 123.536 207.712 123.536ZM207.328 68.112C218.336 68.112 224.992 73.36 226.4 83.728L187.616 83.728C188.896 72.976 196.832 68.112 207.328 68.112ZM280.208 123.536C299.664 123.536 310.16 113.68 310.16 94.096L310.16 57.232 296.848 57.232 296.848 93.456C296.848 106.768 290.704 110.992 280.208 110.992 269.712 110.992 263.568 107.024 263.568 93.456L263.568 57.232 250.256 57.232 250.256 94.096C250.256 113.04 259.856 123.536 280.208 123.536ZM353.472 123.536C371.008 123.536 382.144 114.96 384.448 102.8L370.496 102.8C368.704 107.792 363.712 111.12 353.472 111.12 342.08 111.12 334.272 105.36 333.376 94.608L385.856 94.608C388.032 73.104 376.256 55.696 353.472 55.696 333.632 55.696 320.064 69.008 320.064 90.512 320.064 110.48 331.84 123.536 353.472 123.536ZM353.088 68.112C364.096 68.112 370.752 73.36 372.16 83.728L333.376 83.728C334.656 72.976 342.592 68.112 353.088 68.112ZM421.872 122 437.616 122 437.616 110.48 426.864 110.48C419.952 110.48 417.648 108.176 417.648 101.136L417.648 68.752 437.616 68.752 437.616 57.232 417.648 57.232 417.648 40.336 404.336 40.336 404.336 57.232 389.36 57.232 389.36 68.752 404.336 68.752 404.336 104.72C404.336 115.6 410.48 122 421.872 122ZM465.696 119.44 474.4 119.44 471.2 128.144C469.152 133.776 466.464 135.44 458.912 135.44L447.904 135.44 447.904 147.344 463.904 147.344C475.68 147.344 480.544 140.56 483.872 130.448L507.552 57.232 493.6 57.232 477.088 111.888 455.584 57.232 440.352 57.232 465.696 119.44Z" transform="translate(169.856 -13.282)"/></g></svg>